:SAMPLES-PER-SECOND 30
:FULLY-SPECIFIED
:DEGREES
766
root  -25.7921 38.0513 4.73092 -150.788 -86.467 167.01
RightUpLeg  -44.0304 -20.0669 10.544
RightLeg  38.6524 -4.54553 -4.16908
RightFoot  -14.2286 -0.186205 -3.61238
RightToes  5.82063e-011 0 -3.6325e-017
Spine  68.9026 -5.05018 7.27182
Spine1  5.79953 1.86713 -8.65728
HEad  -45.398 -8.02801 9.06661
LeftShoulder1  2.41753 -19.5054 -2.33344
LeftArm  -72.9361 -69.5449 38.7779
LeftForeArm  65.5254 -19.2356 -2.47702
LeftHand  -0.244104 0.0205437 5.32207
RightShoulder  2.26382 10.0097 9.42769
RightArm  -67.32 64.5767 -38.2686
RightForeArm  32.4488 10.5338 4.12949
RightHand  -26.0074 39.2838 -61.0042
LeftUpLeg  -54.0993 13.7424 -9.46498
LeftLeg  28.6142 3.52321 2.59038
LeftFoot  -1.85257 0.424966 -4.92376
LeftToes  1.45487e-011 -6.19069e-011 1.65092e-011
767
root  -26.8351 38.0155 4.68403 -159.749 -86.653 176.12
RightUpLeg  -42.7107 -19.4297 10.2305
RightLeg  39.8582 -5.02128 -4.76473
RightFoot  -16.0714 -0.229015 -2.91506
RightToes  5.82063e-011 0 -3.6325e-017
Spine  68.615 -4.91513 7.65345
Spine1  5.76277 2.57134 -9.05482
HEad  -45.1628 -8.38733 8.60999
LeftShoulder1  2.67492 -20.5847 -2.99625
LeftArm  -71.0681 -69.8818 37.7431
LeftForeArm  66.0517 -19.22 -2.59276
LeftHand  -0.244104 0.0205437 5.32207
RightShoulder  2.57218 10.7048 10.9229
RightArm  -65.5271 63.811 -38.0249
RightForeArm  32.482 10.6177 4.34348
RightHand  -26.1172 39.3833 -61.103
LeftUpLeg  -52.129 16.8813 -12.4306
LeftLeg  18.1945 1.0278 0.0495869
LeftFoot  -0.548893 0.65402 -6.90249
LeftToes  1.45487e-011 -6.19069e-011 1.65092e-011
768
root  -27.8762 37.8831 4.68553 -165.931 -86.7308 -178.206
RightUpLeg  -41.0755 -18.9059 9.4894
RightLeg  41.7827 -5.69751 -5.72802
RightFoot  -17.682 -0.252719 -2.3918
RightToes  5.82063e-011 0 -3.6325e-017
Spine  68.717 -4.67192 7.7377
Spine1  5.54833 3.25052 -9.10723
HEad  -43.6683 -9.20685 7.78594
LeftShoulder1  3.05076 -21.7919 -4.06593
LeftArm  -67.4433 -70.6337 34.4018
LeftForeArm  66.9719 -19.0461 -2.76036
LeftHand  -0.244104 0.0205437 5.32207
RightShoulder  3.04904 11.6216 13.1885
RightArm  -61.948 63.1448 -37.3923
RightForeArm  31.9611 11.0372 4.88814
RightHand  -25.7695 39.1444 -60.6968
LeftUpLeg  -49.0788 15.5206 -10.1882
LeftLeg  13.53 3.73321 -1.66435
LeftFoot  4.65871 0.426788 -3.47722
LeftToes  1.45487e-011 -6.19069e-011 1.65092e-011
769
root  -28.8918 37.7012 4.68514 -164.493 -87.0596 179.668
RightUpLeg  -39.9313 -18.8555 8.4553
RightLeg  44.8291 -6.30003 -6.98093
RightFoot  -18.8785 -0.241585 -1.77074
RightToes  5.82063e-011 0 -3.6325e-017
Spine  68.8594 -4.54457 7.52392
Spine1  5.05888 3.23573 -8.89443
HEad  -42.454 -9.86603 7.25898
LeftShoulder1  3.24177 -22.3795 -4.6074
LeftArm  -64.7208 -71.2546 31.8079
LeftForeArm  67.5713 -18.3571 -3.06991
LeftHand  -0.244104 0.0205437 5.32207
RightShoulder  3.54589 12.5647 15.3022
RightArm  -58.1639 62.6591 -36.6989
RightForeArm  31.3714 11.5367 5.43672
RightHand  -25.5057 38.9693 -60.3783
LeftUpLeg  -48.5149 15.7524 -11.1283
LeftLeg  14.8707 2.3812 -1.60622
LeftFoot  10.3522 -0.522976 2.47218
LeftToes  1.45487e-011 -6.19069e-011 1.65092e-011
770
root  -29.8615 37.5792 4.66259 -155.57 -87.5746 170.287
RightUpLeg  -39.8083 -19.176 7.21148
RightLeg  48.8247 -6.26548 -7.95939
RightFoot  -18.8603 -0.0987516 0.494894
RightToes  5.82063e-011 0 -3.6325e-017
Spine  68.687 -4.30649 7.21568
Spine1  4.90708 2.74606 -8.04088
HEad  -43.1678 -10.2872 7.0392
LeftShoulder1  3.80643 -23.1647 -6.3598
LeftArm  -64.8231 -70.8938 35.8337
LeftForeArm  66.0857 -17.8582 -3.60703
LeftHand  -0.244104 0.0205437 5.32207
RightShoulder  3.58578 12.7094 15.3239
RightArm  -56.9095 62.3697 -35.8583
RightForeArm  31.5644 11.6062 5.48398
RightHand  -25.63 39.0837 -60.4907
LeftUpLeg  -49.9376 18.167 -15.06
LeftLeg  19.114 -2.69803 -0.469709
LeftFoot  11.6807 -1.15655 5.35512
LeftToes  1.45487e-011 -6.19069e-011 1.65092e-011
771
root  -30.7544 37.5804 4.66525 -149.447 -87.627 163.903
RightUpLeg  -41.0067 -19.4484 6.0742
RightLeg  53.5997 -5.50069 -8.35405
RightFoot  -15.4541 0.0212797 3.93327
RightToes  5.82063e-011 0 -3.6325e-017
Spine  68.2699 -3.80788 6.95153
Spine1  5.95498 2.62573 -7.05543
HEad  -45.4565 -10.3973 6.61787
LeftShoulder1  5.24805 -25.1271 -10.8659
LeftArm  -65.7361 -68.8858 45.9615
LeftForeArm  61.799 -18.2855 -4.19585
LeftHand  -0.244104 0.0205437 5.32207
RightShoulder  3.00859 11.7061 12.8146
RightArm  -59.3302 62.5541 -34.8648
RightForeArm  32.2573 10.8652 4.79069
RightHand  -25.7323 39.1633 -60.6005
LeftUpLeg  -49.9592 16.5112 -13.281
LeftLeg  23.5037 -0.552016 0.073265
LeftFoot  8.4709 -0.923839 4.97102
LeftToes  1.45487e-011 -6.19069e-011 1.65092e-011
772
root  -31.5412 37.6663 4.72358 -153.61 -87.0822 167.981
RightUpLeg  -43.8365 -19.7214 5.43407
RightLeg  59.0006 -4.56411 -8.64269
RightFoot  -7.34733 -0.213299 5.31195
RightToes  5.82063e-011 0 -3.6325e-017
Spine  67.4094 -6.49406 6.54323
Spine1  9.05197 1.40282 -12.8709
HEad  -48.476 -6.56825 8.65413
LeftShoulder1  3.11249 -21.2515 -4.73735
LeftArm  -71.3781 -66.5559 51.8562
LeftForeArm  57.8656 -17.9551 -4.11546
LeftHand  -0.244104 0.0205437 5.32207
RightShoulder  2.53127 12.1302 8.78131
RightArm  -67.849 64.2481 -32.9656
RightForeArm  33.8639 8.40128 2.61394
RightHand  -25.4994 38.9937 -60.3357
LeftUpLeg  -49.6662 16.0543 -12.2922
LeftLeg  26.1976 0.750354 0.734817
LeftFoot  5.30935 -0.721755 4.72657
LeftToes  1.45487e-011 -6.19069e-011 1.65092e-011
773
root  -32.2406 37.7479 4.78746 -156.296 -86.5463 170.867
RightUpLeg  -47.815 -20.5528 5.32758
RightLeg  64.0671 -3.82425 -9.13061
RightFoot  2.38313 -0.337806 3.0568
RightToes  5.82063e-011 0 -3.6325e-017
Spine  67.0951 -6.5396 6.34484
Spine1  9.00205 1.72297 -13.8598
HEad  -48.8012 -6.15042 8.04083
LeftShoulder1  3.36425 -22.5256 -5.03726
LeftArm  -72.262 -65.9063 52.032
LeftForeArm  58.1211 -16.5507 -4.6184
LeftHand  -0.244104 0.0205437 5.32207
RightShoulder  2.41707 12.0651 8.04335
RightArm  -70.0547 64.9724 -32.9932
RightForeArm  33.9846 6.80341 1.94169
RightHand  -25.142 38.7609 -59.8934
LeftUpLeg  -49.3468 16.5998 -12.3362
LeftLeg  27.4275 0.87064 0.831154
LeftFoot  4.32313 -0.841242 5.91482
LeftToes  1.45487e-011 -6.19069e-011 1.65092e-011
774
root  -32.891 37.8712 4.78476 -150.666 -86.575 165.79
RightUpLeg  -51.7039 -21.9449 5.45349
RightLeg  67.2235 -3.51157 -9.84287
RightFoot  8.21919 0.083923 -0.234986
RightToes  5.82063e-011 0 -3.6325e-017
Spine  67.725 -5.6976 6.53241
Spine1  5.80174 2.20629 -12.4421
HEad  -47.2232 -7.85791 7.0185
LeftShoulder1  3.6381 -24.4558 -5.08488
LeftArm  -71.5448 -68.1033 45.4899
LeftForeArm  62.8134 -14.3518 -5.08978
LeftHand  -0.244104 0.0205437 5.32207
RightShoulder  2.87794 12.7414 10.4748
RightArm  -66.4984 64.4804 -33.2141
RightForeArm  33.7484 5.7503 2.86046
RightHand  -25.1134 38.7671 -59.8276
LeftUpLeg  -49.0998 17.3029 -13.0521
LeftLeg  27.7193 0.0742907 0.38884
LeftFoot  3.86877 -0.908813 6.61699
LeftToes  1.45487e-011 -6.19069e-011 1.65092e-011
775
root  -33.5127 38.1264 4.71073 -143.224 -86.681 158.98
RightUpLeg  -54.3581 -22.8368 5.54584
RightLeg  67.3044 -3.80689 -10.6248
RightFoot  8.51762 0.397607 -1.95358
RightToes  5.82063e-011 0 -3.6325e-017
Spine  68.8644 -4.36304 7.11582
Spine1  1.61644 2.93267 -9.75213
HEad  -45.3871 -10.6085 5.90636
LeftShoulder1  4.41622 -26.5542 -6.95581
LeftArm  -66.972 -70.9635 37.2912
LeftForeArm  67.306 -13.1976 -5.51806
LeftHand  -0.244104 0.0205437 5.32207
RightShoulder  3.42793 13.2388 13.5491
RightArm  -60.3284 63.2491 -33.3044
RightForeArm  32.771 5.32546 4.49102
RightHand  -25.3407 38.9077 -60.1194
LeftUpLeg  -48.2558 17.4859 -13.3041
LeftLeg  26.9962 -0.425816 0.105613
LeftFoot  2.88087 -0.743868 5.81214
LeftToes  1.45487e-011 -6.19069e-011 1.65092e-011
776
root  -34.0963 38.4137 4.59374 -139.855 -86.3163 156.197
RightUpLeg  -55.4924 -22.3142 5.10848
RightLeg  63.9749 -4.59368 -10.745
RightFoot  5.84299 0.218145 -1.14212
RightToes  5.82063e-011 0 -3.6325e-017
Spine  69.2028 -3.99768 7.37599
Spine1  0.529176 3.24359 -9.10995
HEad  -45.4732 -11.3597 5.57206
LeftShoulder1  4.75714 -26.9377 -7.98195
LeftArm  -64.3255 -71.6406 36.0738
LeftForeArm  66.8667 -12.9982 -6.09155
LeftHand  -0.244104 0.0205437 5.32207
RightShoulder  3.43275 13.2016 13.6164
RightArm  -58.4351 62.9475 -33.5078
RightForeArm  31.3904 4.72467 5.10786
RightHand  -25.6033 39.0329 -60.498
LeftUpLeg  -46.9975 17.3139 -13.0497
LeftLeg  25.6929 -0.0715353 0.300246
LeftFoot  2.24398 -0.602644 4.94694
LeftToes  1.45487e-011 -6.19069e-011 1.65092e-011
777
root  -34.6436 38.6581 4.43733 -139.488 -85.731 156.457
RightUpLeg  -55.1799 -20.6804 4.07955
RightLeg  57.0085 -5.51304 -9.53392
RightFoot  2.96452 -0.121401 1.12896
RightToes  5.82063e-011 0 -3.6325e-017
Spine  68.3495 -4.97221 7.20247
Spine1  2.77759 2.77745 -10.9514
HEad  -47.1794 -9.63273 5.9857
LeftShoulder1  4.24937 -25.8121 -6.7428
LeftArm  -65.6119 -69.915 41.4172
LeftForeArm  62.0936 -12.7596 -6.63841
LeftHand  -0.244104 0.0205437 5.32207
RightShoulder  3.03285 13.0122 11.2063
RightArm  -61.7924 64.0357 -34.2797
RightForeArm  30.4338 3.56198 4.56379
RightHand  -25.9656 39.2394 -60.974
LeftUpLeg  -45.911 17.3959 -12.8725
LeftLeg  24.3296 0.349957 0.512024
LeftFoot  2.3651 -0.608537 4.94181
LeftToes  1.45487e-011 -6.19069e-011 1.65092e-011
